<svg width="50" height="50" viewBox="0 0 50 50" fill="none" xmlns="http://www.w3.org/2000/svg">
<g clip-path="url(#clip0_3_21)">
<path d="M38.2812 14.8438C44.3202 14.8438 49.2187 19.7422 49.2187 25.7812C49.2187 31.8203 44.3202 36.7188 38.2812 36.7188C37.5155 36.7188 36.7655 36.6406 36.0468 36.4922C36.9296 35.1406 37.5702 33.6328 37.9296 32.0234C38.0468 32.0313 38.164 32.0312 38.2812 32.0312C41.7265 32.0312 44.5312 29.2266 44.5312 25.7812C44.5312 22.3359 41.7265 19.5312 38.2812 19.5312V14.8438Z" fill="#C69D70"/>
<path d="M37.1796 34.3594C43.0077 34.125 47.6562 29.3203 47.6562 23.4375C47.6562 21.7109 47.2499 20.0781 46.539 18.6172C48.2108 20.5391 49.2187 23.0469 49.2187 25.7812C49.2187 31.8203 44.3202 36.7188 38.2812 36.7188C37.5155 36.7188 36.7655 36.6406 36.0468 36.4922C36.4843 35.8203 36.8671 35.1094 37.1796 34.3594Z" fill="#A05B10"/>
<path d="M40.6249 42.9688C41.4843 42.9688 42.1874 43.6719 42.1874 44.5312C42.1874 45.3906 41.4843 46.0938 40.6249 46.0938H35.9374H7.03116H2.34366C1.91397 46.0938 1.52335 45.9219 1.2421 45.6328C0.953033 45.3516 0.781158 44.9609 0.781158 44.5312C0.781158 43.6719 1.48428 42.9688 2.34366 42.9688H6.57803H11.4218H11.5468H12.414H24.2187H40.6249Z" fill="#C69D70"/>
<path d="M38.2812 23.4375V28.9062C38.2812 29.9766 38.164 31.0234 37.9296 32.0234C37.5702 33.6328 36.9296 35.1406 36.0468 36.4922C33.5624 40.3906 29.1874 42.9688 24.2187 42.9688H12.414C15.7733 40.9453 19.2968 36.5703 16.703 27.9063C13.5702 28.8438 11.328 29.9844 9.7421 31.2187L9.70303 31.2578C8.64053 30.2187 7.25772 29.1953 5.46866 28.2266V23.4375H26.5624V27.3438C26.5624 28.2031 27.2655 28.9062 28.1249 28.9062H31.2499C32.1093 28.9062 32.8124 28.2031 32.8124 27.3438V23.4375H38.2812Z" fill="#F29B30"/>
<path d="M38.2812 23.4375V28.9062C38.2812 29.9766 38.164 31.0234 37.9296 32.0234C37.5702 33.6328 36.9296 35.1406 36.0468 36.4922C33.5624 40.3906 29.1874 42.9688 24.2187 42.9688H12.414C13.8983 42.0781 15.4218 40.7188 16.4218 38.7344C19.039 37.625 21.2577 35.7422 22.7655 33.3672C23.6483 32.0156 24.289 30.5078 24.6483 28.8984C24.8827 27.8984 24.9999 26.8516 24.9999 25.7812V23.4375H26.5624V27.3438C26.5624 28.2031 27.2655 28.9062 28.1249 28.9062H31.2499C32.1093 28.9062 32.8124 28.2031 32.8124 27.3438V23.4375H38.2812Z" fill="#F25D27"/>
<path d="M38.2812 19.5312V23.4375H32.8124V21.0938C32.8124 20.2344 32.1093 19.5312 31.2499 19.5312H29.6874V11.7188H36.7187C37.578 11.7188 38.2812 12.4219 38.2812 13.2812V14.8438V19.5312Z" fill="#F2DCD8"/>
<path d="M35.9374 46.0938V47.6562C35.9374 48.5156 35.2343 49.2188 34.3749 49.2188H8.59366C7.73428 49.2188 7.03116 48.5156 7.03116 47.6562V46.0938H35.9374Z" fill="#A05B10"/>
<path d="M32.8124 23.4375V27.3438C32.8124 28.2031 32.1093 28.9062 31.2499 28.9062H28.1249C27.2655 28.9062 26.5624 28.2031 26.5624 27.3438V23.4375V21.0938C26.5624 20.2344 27.2655 19.5312 28.1249 19.5312H29.6874H31.2499C32.1093 19.5312 32.8124 20.2344 32.8124 21.0938V23.4375Z" fill="#97BF6F"/>
<path d="M32.8124 21.0938V27.3438C32.8124 28.2031 32.1093 28.9062 31.2499 28.9062H28.1249C27.2655 28.9062 26.5624 28.2031 26.5624 27.3438H29.6874C30.5468 27.3438 31.2499 26.6406 31.2499 25.7812V19.5312C32.1093 19.5312 32.8124 20.2344 32.8124 21.0938Z" fill="#678C3B"/>
<path d="M29.6874 11.7188V19.5312H28.1249C27.2655 19.5312 26.5624 20.2344 26.5624 21.0938V23.4375H5.46866V13.2812C5.46866 12.4219 6.17178 11.7188 7.03116 11.7188H29.6874Z" fill="#F7EAE8"/>
<path d="M22.115 11.7188C24.0727 15.0595 25.0867 19.3103 24.8795 23.4375H26.5624V21.0938C26.5624 20.2344 27.2655 19.5312 28.1249 19.5312H29.6874V11.7188H22.115Z" fill="#F2DCD8"/>
<path d="M16.703 27.9062C19.2968 36.5703 15.7733 40.9453 12.414 42.9688H11.5468C12.7812 40.6484 14.3515 35.8125 9.70303 31.2578L9.7421 31.2187C11.328 29.9844 13.5702 28.8438 16.703 27.9062Z" fill="#97BF6F"/>
<path d="M12.414 42.9688H11.5468C12.1249 41.8828 12.7812 40.2422 12.828 38.3359C14.9296 36.3281 16.5546 33.125 15.8827 28.1641C16.1483 28.0781 16.4218 27.9922 16.703 27.9062C19.2968 36.5703 15.7733 40.9453 12.414 42.9688Z" fill="#678C3B"/>
<path d="M11.4218 42.9688H6.57803C3.60928 40.8906 -0.382905 36.2266 3.71866 27.3438C4.34366 27.6328 4.92178 27.9219 5.46866 28.2266C7.25772 29.1953 8.64053 30.2187 9.70303 31.2578C14.3515 35.8125 12.7812 40.6484 11.5468 42.9688H11.4218Z" fill="#97BF6F"/>
<path d="M9.20303 42.9688C10.4374 40.6484 12.0077 35.8125 7.35928 31.2578C6.32803 30.25 4.99991 29.2578 3.28897 28.3203C3.42178 28 3.56241 27.6719 3.71866 27.3438C4.34366 27.6328 4.92178 27.9219 5.46866 28.2266C7.25772 29.1953 8.64053 30.2187 9.70303 31.2578C14.3515 35.8125 12.7812 40.6484 11.5468 42.9688H9.20303Z" fill="#678C3B"/>
<path d="M33.5929 29.6981C33.161 29.6287 32.7644 29.9141 32.6926 30.339C32.4774 31.6207 31.9594 32.8582 31.1957 33.9179C30.9439 34.2681 31.0232 34.7563 31.3727 35.0089C31.5115 35.1081 31.671 35.1562 31.8289 35.1562C32.0715 35.1562 32.3111 35.0433 32.4637 34.8319C33.367 33.5784 33.9789 32.1144 34.2337 30.5983C34.3055 30.1728 34.0179 29.7699 33.5929 29.6981ZM29.2305 35.8833C28.5713 36.3586 27.8488 36.7378 27.0828 37.0094C26.6762 37.1536 26.4633 37.5999 26.6075 38.0065C26.7212 38.327 27.0226 38.5269 27.3437 38.5269C27.4308 38.5269 27.5185 38.5124 27.6047 38.4818C28.511 38.1606 29.3655 37.7128 30.1445 37.1497C30.4947 36.8972 30.5733 36.4089 30.3208 36.0595C30.0688 35.7102 29.5813 35.6308 29.2305 35.8833Z" fill="black"/>
<path d="M39.0623 14.1021V13.2813C39.0623 11.9889 38.0109 10.9376 36.7185 10.9376H7.03104C5.73865 10.9376 4.68729 11.9889 4.68729 13.2813V26.9428C4.47567 26.8393 4.26463 26.7355 4.04569 26.6343C3.85721 26.5481 3.64285 26.5389 3.44832 26.6107C3.25379 26.6825 3.09588 26.8282 3.00887 27.0166C-0.586054 34.8026 1.78104 39.5575 4.42791 42.1876H2.34354C1.05115 42.1876 -0.000213623 43.2389 -0.000213623 44.5313C-0.000213623 45.8237 1.05115 46.8751 2.34354 46.8751H6.24979V47.6563C6.24979 48.9487 7.30115 50.0001 8.59354 50.0001H34.3748C35.6672 50.0001 36.7185 48.9487 36.7185 47.6563V46.8751H40.6248C41.9172 46.8751 42.9685 45.8237 42.9685 44.5313C42.9685 43.2389 41.9172 42.1876 40.6248 42.1876H30.8079C33.0621 41.0644 34.9947 39.3943 36.4196 37.339C37.032 37.4362 37.6532 37.5001 38.281 37.5001C44.7432 37.5001 49.9998 32.2434 49.9998 25.7813C49.9998 19.5829 45.16 14.5072 39.0623 14.1021ZM39.0623 20.375C41.7078 20.7562 43.7498 23.0321 43.7498 25.7813C43.7498 28.5996 41.6058 30.9261 38.8637 31.218C38.9826 30.4628 39.0623 29.6945 39.0623 28.9063V20.375ZM37.4998 13.2813V22.6563H33.5935V21.0938C33.5935 19.8014 32.5422 18.7501 31.2498 18.7501H30.4685V12.5001H36.7185C37.1496 12.5001 37.4998 12.8503 37.4998 13.2813ZM31.2498 20.3126C31.6808 20.3126 32.031 20.6628 32.031 21.0938V27.3438C32.031 27.7749 31.6808 28.1251 31.2498 28.1251H28.1248C27.6937 28.1251 27.3435 27.7749 27.3435 27.3438V21.0938C27.3435 20.6628 27.6937 20.3126 28.1248 20.3126H31.2498ZM7.03104 12.5001H28.906V18.7501H28.1248C26.8324 18.7501 25.781 19.8014 25.781 21.0938V22.6563H6.24979V13.2813C6.24979 12.8503 6.59998 12.5001 7.03104 12.5001ZM4.1075 28.3952C8.17625 30.4047 10.7115 32.8301 11.6469 35.6126C12.4551 38.0165 11.8924 40.2628 11.2675 41.7393C8.83719 39.3455 5.46854 35.1809 5.46854 30.4688C5.46854 30.037 5.11912 29.6876 4.68729 29.6876C4.25545 29.6876 3.90604 30.037 3.90604 30.4688C3.90604 35.3083 6.98504 39.53 9.51824 42.1876H6.83612C3.77762 39.9611 0.977911 35.8016 4.1075 28.3952ZM12.9784 41.6404C13.4868 40.1955 13.8422 38.2959 13.4201 36.22L13.7609 35.8009C14.4765 34.9266 15.1517 34.1011 15.6484 33.184C15.8537 32.8048 15.7125 32.3311 15.3326 32.1251C14.9534 31.9221 14.4797 32.061 14.2736 32.4409C13.9164 33.1008 13.4116 33.7521 12.8644 34.4265C12.4074 33.3482 11.7419 32.3261 10.8767 31.3614C12.272 30.4117 14.0443 29.583 16.1695 28.891C18.0076 35.819 15.6827 39.5974 12.9784 41.6404ZM35.156 47.6563C35.156 48.0874 34.8058 48.4376 34.3748 48.4376H8.59354C8.16248 48.4376 7.81229 48.0874 7.81229 47.6563V46.8751H35.156V47.6563ZM40.6248 43.7501C41.0558 43.7501 41.406 44.1003 41.406 44.5313C41.406 44.9624 41.0558 45.3126 40.6248 45.3126H2.34354C1.91248 45.3126 1.56229 44.9624 1.56229 44.5313C1.56229 44.1003 1.91248 43.7501 2.34354 43.7501H40.6248ZM24.2185 42.1876H14.7501C17.339 39.8114 19.7673 35.4166 17.4513 27.6818C17.3269 27.2683 16.8935 27.0348 16.4785 27.1577C13.7347 27.9793 11.4805 29.0174 9.75389 30.2436C8.77039 29.3627 7.60145 28.5366 6.24979 27.7674V24.2188H25.781V27.3438C25.781 28.6362 26.8324 29.6876 28.1248 29.6876H31.2498C32.5422 29.6876 33.5935 28.6362 33.5935 27.3438V24.2188H37.4998V28.9063C37.4998 36.2297 31.542 42.1876 24.2185 42.1876ZM38.281 35.9376C37.9556 35.9376 37.6317 35.9187 37.3102 35.8886C37.8292 34.9194 38.2318 33.8822 38.5267 32.8002C42.2897 32.6693 45.3124 29.5756 45.3124 25.7813C45.3124 22.1683 42.5729 19.1863 39.0624 18.7962V15.6647C44.2975 16.0662 48.4374 20.4451 48.4374 25.7814C48.4373 31.3813 43.881 35.9376 38.281 35.9376ZM25.9267 7.61949C26.6378 9.49635 29.2364 10.0799 29.5301 10.1402C29.5827 10.1508 29.6361 10.1562 29.688 10.1562C30.0504 10.1562 30.3746 9.90211 30.4516 9.53365C30.5387 9.11178 30.2678 8.6982 29.8459 8.60973C29.3172 8.49908 27.731 7.97721 27.3869 7.06324C27.1984 6.56353 27.3945 5.92183 27.9682 5.15592C28.9052 3.90777 29.2042 2.78014 28.8586 1.80514C28.3833 0.46617 26.9169 0.0649008 26.7514 0.0236899C26.3363 -0.0808023 25.9159 0.171737 25.8084 0.587459C25.7015 1.0025 25.9526 1.4275 26.3677 1.53805C26.3761 1.54029 27.1924 1.77076 27.3877 2.33307C27.5395 2.77096 27.3022 3.44088 26.7185 4.219C25.8016 5.44137 25.5347 6.5858 25.9267 7.61949ZM20.458 7.61949C21.169 9.49635 23.7677 10.0799 24.0613 10.1402C24.114 10.1508 24.1674 10.1562 24.2192 10.1562C24.5816 10.1562 24.9058 9.90211 24.9829 9.53365C25.0699 9.11178 24.799 8.6982 24.3771 8.60973C23.8484 8.49908 22.2623 7.97721 21.9181 7.06324C21.7297 6.56353 21.9258 5.92183 22.4995 5.15592C23.4364 3.90777 23.7354 2.78014 23.3898 1.80514C22.9145 0.46617 21.4481 0.0649008 21.2826 0.0236899C20.8676 -0.0808023 20.4465 0.171737 20.3396 0.587459C20.2328 1.0025 20.4839 1.4275 20.8989 1.53805C20.9073 1.54029 21.7236 1.77076 21.9189 2.33307C22.0708 2.77096 21.8335 3.44088 21.2498 4.219C20.3329 5.44137 20.0659 6.5858 20.458 7.61949ZM14.9892 7.61949C15.7003 9.49635 18.2989 10.0799 18.5926 10.1402C18.6452 10.1508 18.6986 10.1562 18.7505 10.1562C19.1129 10.1562 19.4371 9.90211 19.5141 9.53365C19.6012 9.11178 19.3303 8.6982 18.9084 8.60973C18.3797 8.49908 16.7935 7.97721 16.4494 7.06324C16.2609 6.56353 16.457 5.92183 17.0307 5.15592C17.9677 3.90777 18.2667 2.78014 17.9211 1.80514C17.4458 0.46617 15.9794 0.0649008 15.8139 0.0236899C15.3988 -0.0808023 14.9777 0.171737 14.8709 0.587459C14.764 1.0025 15.0151 1.4275 15.4302 1.53805C15.4386 1.54029 16.2549 1.77076 16.4502 2.33307C16.602 2.77096 16.3647 3.44088 15.781 4.219C14.8641 5.44137 14.5972 6.5858 14.9892 7.61949Z" fill="black"/>
</g>
<defs>
<clipPath id="clip0_3_21">
<rect width="50" height="50" fill="white"/>
</clipPath>
</defs>
</svg>
