<svg width="363" height="363" viewBox="0 0 363 363" fill="none" xmlns="http://www.w3.org/2000/svg">
<path d="M214.321 117.652V349.412C214.321 356.668 208.439 362.55 201.183 362.55C193.926 362.55 188.045 356.667 188.045 349.412V117.652H214.321Z" fill="#C69D70"/>
<path d="M327.498 105.076V176.809C327.498 187.056 319.19 195.364 308.942 195.364H188.044V105.076C188.044 90.326 182.098 77.0248 172.418 67.3819C162.813 57.7021 149.474 51.7566 134.763 51.7566H274.178C288.89 51.7566 302.229 57.7021 311.872 67.3819C321.514 77.0248 327.498 90.326 327.498 105.076Z" fill="#97BF6F"/>
<path opacity="0.08" d="M327.498 105.076V176.802C327.498 187.055 319.189 195.363 308.937 195.363H282.296C292.548 195.363 300.857 187.055 300.857 176.802V105.076C300.857 90.326 294.835 77.0248 285.192 67.3819C275.55 57.7014 262.211 51.7566 247.538 51.7566H274.178C288.89 51.7566 302.229 57.7014 311.872 67.3819C321.514 77.0248 327.498 90.326 327.498 105.076Z" fill="#1F211D"/>
<path d="M188.044 105.057V195.363H81.4438V105.057C81.4438 75.6196 105.307 51.7566 134.744 51.7566C164.181 51.7566 188.044 75.6203 188.044 105.057Z" fill="#F25D27"/>
<path d="M81.4438 266.615V195.364H188.044V266.615C188.044 296.052 164.181 319.915 134.744 319.915C105.307 319.915 81.4438 296.051 81.4438 266.615Z" fill="#97BF6F"/>
<path d="M92.8784 183.929V105.058C92.8784 81.9706 111.659 63.1904 134.745 63.1904C157.83 63.1904 176.611 81.9714 176.611 105.058V183.929H92.8784Z" fill="#6D6D6D"/>
<path d="M150.254 120.059V173.165C150.254 179.121 145.446 183.93 139.49 183.93H46.267C40.3101 183.93 35.5024 179.121 35.5024 173.165V120.059C35.5024 114.102 40.3108 109.294 46.267 109.294H139.49C145.447 109.293 150.254 114.102 150.254 120.059Z" fill="#FFCE29"/>
<path opacity="0.08" d="M150.241 120.047V173.176C150.241 179.121 145.439 183.924 139.493 183.924H129.088C135.034 183.924 139.836 179.121 139.836 173.176V120.047C139.836 114.102 135.034 109.3 129.088 109.3H139.493C145.439 109.3 150.241 114.102 150.241 120.047Z" fill="black"/>
<path d="M148.726 178.632C148.65 178.709 148.612 178.823 148.536 178.899L106.231 150.848L99.676 156.603C95.7121 160.299 90.0338 160.299 86.0316 156.603L79.5146 150.886L37.1712 178.937C37.0954 178.823 37.0571 178.708 37.0188 178.632L76.3511 148.142L37.7051 114.184L86.0316 150.772C90.0338 154.011 95.7121 154.011 99.676 150.772L148.041 114.184L109.356 148.104L148.726 178.632Z" fill="#F2B816"/>
<path opacity="0.4" d="M43.8692 143.689V151.342C43.8692 152.592 42.856 153.605 41.6061 153.605C40.3562 153.605 39.343 152.592 39.343 151.342V143.689C39.343 142.439 40.3562 141.426 41.6061 141.426C42.856 141.426 43.8692 142.439 43.8692 143.689ZM206.184 160.576V171.052C206.184 173.815 203.945 176.054 201.183 176.054C198.421 176.054 196.182 173.815 196.182 171.052V160.576C196.182 157.814 198.421 155.575 201.183 155.575C203.945 155.575 206.184 157.814 206.184 160.576Z" fill="white"/>
<path d="M221.287 19.697H210.834V92.2211H221.287V19.697Z" fill="#C69D70"/>
<path d="M207.296 87.4688V94.2992C207.296 99.1394 211.22 103.063 216.06 103.063C220.9 103.063 224.824 99.1394 224.824 94.2992V87.4688C224.824 85.5808 223.293 84.0501 221.405 84.0501H210.715C208.827 84.0494 207.296 85.5808 207.296 87.4688Z" fill="#E5E3E5"/>
<path d="M259.578 0.450205H216.544C213.391 0.450205 210.834 3.0068 210.834 6.16037V31.5711H259.578C261.913 31.5711 263.183 28.8422 261.68 27.0563L253.872 17.7799C253.012 16.7576 253.012 15.2651 253.872 14.2428L261.679 4.96502C263.183 3.17909 261.913 0.450205 259.578 0.450205Z" fill="#F25D27"/>
</svg>
